<?xml version="1.0" encoding="us-ascii" standalone="no"?><svg xmlns="http://www.w3.org/2000/svg" xmlns:xlink="http://www.w3.org/1999/xlink" contentStyleType="text/css" height="459px" preserveAspectRatio="none" style="width:538px;height:459px;" version="1.1" viewBox="0 0 538 459" width="538px" zoomAndPan="magnify"><defs/><g><!--cluster Layanan--><g id="cluster_Layanan"><rect fill="none" height="395" rx="2.5" ry="2.5" style="stroke:#E7E7E7;stroke-width:1.0;" width="115" x="197" y="58"/><text fill="#FFFFFF" font-family="sans-serif" font-size="14" font-weight="bold" lengthAdjust="spacing" textLength="65" x="222" y="72.9951">Layanan</text></g><!--cluster whatYouKnow--><g id="cluster_whatYouKnow"><rect fill="none" height="449" rx="2.5" ry="2.5" style="stroke:#E7E7E7;stroke-width:1.0;" width="163" x="369" y="4"/><text fill="#FFFFFF" font-family="sans-serif" font-size="14" font-style="italic" font-weight="bold" lengthAdjust="spacing" textLength="122" x="389.5" y="18.9951">What you know</text></g><!--cluster whatYouHave--><g id="cluster_whatYouHave"><rect fill="none" height="287" rx="2.5" ry="2.5" style="stroke:#E7E7E7;stroke-width:1.0;" width="134" x="6" y="86"/><text fill="#FFFFFF" font-family="sans-serif" font-size="14" font-style="italic" font-weight="bold" lengthAdjust="spacing" textLength="118" x="14" y="100.9951">What you have</text></g><!--cluster whatYouAre--><g id="cluster_whatYouAre"><rect fill="none" height="71" rx="2.5" ry="2.5" style="stroke:#E7E7E7;stroke-width:1.0;" width="122" x="12" y="381"/><text fill="#FFFFFF" font-family="sans-serif" font-size="14" font-style="italic" font-weight="bold" lengthAdjust="spacing" textLength="106" x="20" y="395.9951">What you are</text></g><!--entity klikBCA--><g id="elem_klikBCA"><rect fill="#313139" height="36.2969" rx="2.5" ry="2.5" style="stroke:#E7E7E7;stroke-width:0.5;" width="72" x="218.5" y="85"/><text fill="#FFFFFF" font-family="sans-serif" font-size="14" lengthAdjust="spacing" textLength="52" x="228.5" y="107.9951">KlikBCA</text></g><!--entity myBCA--><g id="elem_myBCA"><rect fill="#313139" height="36.2969" rx="2.5" ry="2.5" style="stroke:#E7E7E7;stroke-width:0.5;" width="69" x="220" y="355"/><text fill="#FFFFFF" font-family="sans-serif" font-size="14" lengthAdjust="spacing" textLength="49" x="230" y="377.9951">myBCA</text></g><!--entity oneKlik--><g id="elem_oneKlik"><rect fill="#313139" height="36.2969" rx="2.5" ry="2.5" style="stroke:#E7E7E7;stroke-width:0.5;" width="72" x="218.5" y="193"/><text fill="#FFFFFF" font-family="sans-serif" font-size="14" lengthAdjust="spacing" textLength="52" x="228.5" y="215.9951">OneKlik</text></g><!--entity mBCA--><g id="elem_mBCA"><rect fill="#313139" height="36.2969" rx="2.5" ry="2.5" style="stroke:#E7E7E7;stroke-width:0.5;" width="62" x="223.5" y="139"/><text fill="#FFFFFF" font-family="sans-serif" font-size="14" lengthAdjust="spacing" textLength="42" x="233.5" y="161.9951">mBCA</text></g><!--entity ccBCA--><g id="elem_ccBCA"><rect fill="#313139" height="36.2969" rx="2.5" ry="2.5" style="stroke:#E7E7E7;stroke-width:0.5;" width="99" x="205" y="247"/><text fill="#FFFFFF" font-family="sans-serif" font-size="14" lengthAdjust="spacing" textLength="79" x="215" y="269.9951">Kartu kredit</text></g><!--entity atm--><g id="elem_atm"><rect fill="#313139" height="36.2969" rx="2.5" ry="2.5" style="stroke:#E7E7E7;stroke-width:0.5;" width="50" x="229.5" y="409"/><text fill="#FFFFFF" font-family="sans-serif" font-size="14" lengthAdjust="spacing" textLength="30" x="239.5" y="431.9951">ATM</text></g><!--entity flazz--><g id="elem_flazz"><rect fill="#313139" height="36.2969" rx="2.5" ry="2.5" style="stroke:#E7E7E7;stroke-width:0.5;" width="55" x="227" y="301"/><text fill="#FFFFFF" font-family="sans-serif" font-size="14" lengthAdjust="spacing" textLength="35" x="237" y="323.9951">Flazz</text></g><!--entity klikbcaUsername--><g id="elem_klikbcaUsername"><rect fill="#313139" height="36.2969" rx="35" ry="35" style="stroke:#E7E7E7;stroke-width:0.5;" width="126" x="387.5" y="85"/><text fill="#FFFFFF" font-family="sans-serif" font-size="14" lengthAdjust="spacing" textLength="106" x="397.5" y="107.9951">User ID KlikBCA</text></g><!--entity klikbcaPassword--><g id="elem_klikbcaPassword"><rect fill="#313139" height="36.2969" rx="35" ry="35" style="stroke:#E7E7E7;stroke-width:0.5;" width="98" x="401.5" y="139"/><text fill="#FFFFFF" font-family="sans-serif" font-size="14" lengthAdjust="spacing" textLength="78" x="411.5" y="161.9951">PIN KlikBCA</text></g><!--entity pinKeyBca--><g id="elem_pinKeyBca"><rect fill="#313139" height="36.2969" rx="35" ry="35" style="stroke:#E7E7E7;stroke-width:0.5;" width="100" x="400.5" y="31"/><text fill="#FFFFFF" font-family="sans-serif" font-size="14" lengthAdjust="spacing" textLength="80" x="410.5" y="53.9951">PIN KeyBCA</text></g><!--entity BCAid--><g id="elem_BCAid"><rect fill="#313139" height="36.2969" rx="35" ry="35" style="stroke:#E7E7E7;stroke-width:0.5;" width="67" x="417" y="301"/><text fill="#FFFFFF" font-family="sans-serif" font-size="14" lengthAdjust="spacing" textLength="47" x="427" y="323.9951">BCA ID</text></g><!--entity myBCAPassword--><g id="elem_myBCAPassword"><rect fill="#313139" height="36.2969" rx="35" ry="35" style="stroke:#E7E7E7;stroke-width:0.5;" width="140" x="380.5" y="355"/><text fill="#FFFFFF" font-family="sans-serif" font-size="14" lengthAdjust="spacing" textLength="120" x="390.5" y="377.9951">Password myBCA</text></g><!--entity pinKartuKredit--><g id="elem_pinKartuKredit"><rect fill="#313139" height="36.2969" rx="35" ry="35" style="stroke:#E7E7E7;stroke-width:0.5;" width="125" x="388" y="247"/><text fill="#FFFFFF" font-family="sans-serif" font-size="14" lengthAdjust="spacing" textLength="105" x="398" y="269.9951">PIN Kartu kredit</text></g><!--entity pinATM--><g id="elem_pinATM"><rect fill="#313139" height="36.2969" rx="35" ry="35" style="stroke:#E7E7E7;stroke-width:0.5;" width="76" x="412.5" y="409"/><text fill="#FFFFFF" font-family="sans-serif" font-size="14" lengthAdjust="spacing" textLength="56" x="422.5" y="431.9951">PIN ATM</text></g><!--entity kodemBCA--><g id="elem_kodemBCA"><rect fill="#313139" height="36.2969" rx="35" ry="35" style="stroke:#E7E7E7;stroke-width:0.5;" width="147" x="377" y="193"/><text fill="#FFFFFF" font-family="sans-serif" font-size="14" lengthAdjust="spacing" textLength="127" x="387" y="215.9951">Kode akses mBCA</text></g><!--entity keyBCA--><g id="elem_keyBCA"><rect fill="#313139" height="36.2969" rx="35" ry="35" style="stroke:#E7E7E7;stroke-width:0.5;" width="74" x="35.5" y="113"/><text fill="#FFFFFF" font-family="sans-serif" font-size="14" lengthAdjust="spacing" textLength="54" x="45.5" y="135.9951">KeyBCA</text></g><!--entity ponsel--><g id="elem_ponsel"><rect fill="#313139" height="36.2969" rx="35" ry="35" style="stroke:#E7E7E7;stroke-width:0.5;" width="67" x="39" y="167"/><text fill="#FFFFFF" font-family="sans-serif" font-size="14" lengthAdjust="spacing" textLength="47" x="49" y="189.9951">Ponsel</text></g><!--entity kartuKredit--><g id="elem_kartuKredit"><rect fill="#313139" height="36.2969" rx="35" ry="35" style="stroke:#E7E7E7;stroke-width:0.5;" width="99" x="23" y="221"/><text fill="#FFFFFF" font-family="sans-serif" font-size="14" lengthAdjust="spacing" textLength="79" x="33" y="243.9951">Kartu kredit</text></g><!--entity kartuFlazz--><g id="elem_kartuFlazz"><rect fill="#313139" height="36.2969" rx="35" ry="35" style="stroke:#E7E7E7;stroke-width:0.5;" width="95" x="25" y="275"/><text fill="#FFFFFF" font-family="sans-serif" font-size="14" lengthAdjust="spacing" textLength="75" x="35" y="297.9951">Kartu Flazz</text></g><!--entity kartuATM--><g id="elem_kartuATM"><rect fill="#313139" height="36.2969" rx="35" ry="35" style="stroke:#E7E7E7;stroke-width:0.5;" width="90" x="27.5" y="329"/><text fill="#FFFFFF" font-family="sans-serif" font-size="14" lengthAdjust="spacing" textLength="70" x="37.5" y="351.9951">Kartu ATM</text></g><!--entity biometric--><g id="elem_biometric"><rect fill="#313139" height="36.2969" rx="35" ry="35" style="stroke:#E7E7E7;stroke-width:0.5;" width="85" x="30" y="408"/><text fill="#FFFFFF" font-family="sans-serif" font-size="14" lengthAdjust="spacing" textLength="65" x="40" y="430.9951">Biometrik</text></g><path d="M290.6319,103 C317.4928,103 355.2167,103 387.1642,103 " fill="none" style="stroke:#E7E7E7;stroke-width:1.0;"/><path d="M290.6319,112.779 C321.642,121.4107 367.1305,134.0724 401.4943,143.6376 " fill="none" style="stroke:#E7E7E7;stroke-width:1.0;"/><path d="M109.9257,125.3338 C141.5658,120.412 187.0952,113.3296 218.3535,108.4672 " fill="none" style="stroke:#E7E7E7;stroke-width:1.0;"/><path d="M94.4952,112.8842 C117.7643,94.079 157.2765,65.7958 197,54 C265.3011,33.7182 348.631,37.1702 400.3898,42.3972 " fill="none" style="stroke:#E7E7E7;stroke-width:1.0;"/><path d="M289.2922,363.5939 C325.1167,353.6221 381.3148,337.9794 416.7414,328.1184 " fill="none" style="stroke:#E7E7E7;stroke-width:1.0;"/><path d="M289.2922,373 C314.3694,373 349.4296,373 380.3601,373 " fill="none" style="stroke:#E7E7E7;stroke-width:1.0;"/><path d="M106.2211,192.6414 C118.054,196.7527 130.7614,202.9126 140,212 C186.1399,257.3845 152.2448,299.2494 197,346 C203.315,352.5966 211.569,357.7711 219.8095,361.7467 " fill="none" style="stroke:#E7E7E7;stroke-width:1.0;"/><path d="M115.248,413.7075 C147.0277,404.3502 190.2034,391.6373 219.8018,382.9223 " fill="none" style="stroke:#E7E7E7;stroke-width:1.0;"/><path d="M304.4544,265 C329.7102,265 360.7795,265 387.6756,265 " fill="none" style="stroke:#E7E7E7;stroke-width:1.0;"/><path d="M122.2106,246.036 C147.8233,249.7356 179.132,254.258 204.7505,257.9584 " fill="none" style="stroke:#E7E7E7;stroke-width:1.0;"/><path d="M106.1099,197.8529 C116.9428,202.2254 129.0355,207.2178 140,212 C154.3026,218.238 188.2338,234.1359 215.294,246.904 " fill="none" style="stroke:#E7E7E7;stroke-width:1.0;"/><path d="M120.323,299.7633 C154.2812,304.6684 198.9872,311.1259 226.9872,315.1704 " fill="none" style="stroke:#E7E7E7;stroke-width:1.0;"/><path d="M114.3448,365.1532 C149.819,380.9195 199.9904,403.218 229.3966,416.2874 " fill="none" style="stroke:#E7E7E7;stroke-width:1.0;"/><path d="M279.678,427 C312.9938,427 373.3187,427 412.3745,427 " fill="none" style="stroke:#E7E7E7;stroke-width:1.0;"/><path d="M254.5,391.2098 C254.5,397.093 254.5,402.9762 254.5,408.8594 " fill="none" style="stroke:#E7E7E7;stroke-width:1.0;"/><path d="M106.0966,179.9294 C139.4278,174.7446 190.7871,166.7553 223.2428,161.7067 " fill="none" style="stroke:#E7E7E7;stroke-width:1.0;"/><path d="M285.8125,165.4375 C312.1346,172.7643 351.1552,183.6257 384.4961,192.9061 " fill="none" style="stroke:#E7E7E7;stroke-width:1.0;"/><path d="M106.0966,189.7084 C137.8069,194.2888 185.8343,201.2261 218.3778,205.9268 " fill="none" style="stroke:#E7E7E7;stroke-width:1.0;"/><!--SRC=[TLHBRzim3BxhLt2vx1Ji3nG5qXR50k_HmuPXHyPM4y6s54ZA0dVOVnz5FUpOhazyV2JDZwHSg_GPBVQTgLlPm07hzcZDHJUFfZCMl4Nj222r5n_E5eyzGeU3kNXmlVIeKNJorOCtODNnvA5HLjPU6Ir4450VEmbVS22aXhy2w1ljRQVQXySTe8DD5UND3D8F6S3It6sq384C-1xbHOQIO2M-hajzjFu2hPMDydCK-funknzVvwxN3j_UsFaSf8tuDstyUaB_srmgRQwCkLFtlyW4H22qPBpxfEutYHRd3V4RIJdK-DD9gx6N71SKs3_13KcpW1Tqxcfimm4l-s_huBFIbHmUQXnXSbYWoA1Yea3F_kdMovEuBPULVbYj6BYjcDgnx8BlIG0HNO25zDAlQMGPQaKAOEkaWpZVDVu_un-vuFz4nbN-PLcvDMhEHZlPnRzZSVPpirRVRvEHpsLz8Z0jqGAN2OaefcIjqPrTzad7kzRcGHawOAlgEEQajPptOxvCaIzqkvtlvOehRu5852OFvyaMifKL38LuOKIVyRnuetgpQI9Hd-rYR65RR9IIRrh4oqxbng68wO386y5ZvgXJ5ZviCHaIEQEDdFGWY38NSWGzF1AfFRBc7jWL-hmfiurwdrbA6ns0zA85qYQ_bDuu8Vu3]--></g></svg>