<svg xmlns="http://www.w3.org/2000/svg" xmlns:xlink="http://www.w3.org/1999/xlink" contentStyleType="text/css" height="459px" preserveAspectRatio="none" style="width:543px;height:459px;" version="1.1" viewBox="0 0 543 459" width="543px" zoomAndPan="magnify"><defs/><g><!--cluster Layanan--><g id="cluster_Layanan"><rect fill="none" height="395" rx="2.5" ry="2.5" style="stroke:#E7E7E7;stroke-width:1.0;" width="119" x="198" y="58"/><text fill="#FFFFFF" font-family="sans-serif" font-size="14" font-weight="bold" lengthAdjust="spacing" textLength="66.3223" x="224.3389" y="72.9951">Layanan</text></g><!--cluster whatYouKnow--><g id="cluster_whatYouKnow"><rect fill="none" height="449" rx="2.5" ry="2.5" style="stroke:#E7E7E7;stroke-width:1.0;" width="163" x="374" y="4"/><text fill="#FFFFFF" font-family="sans-serif" font-size="14" font-style="italic" font-weight="bold" lengthAdjust="spacing" textLength="121.8369" x="394.5815" y="18.9951">What you know</text></g><!--cluster whatYouHave--><g id="cluster_whatYouHave"><rect fill="none" height="287" rx="2.5" ry="2.5" style="stroke:#E7E7E7;stroke-width:1.0;" width="134" x="7" y="86"/><text fill="#FFFFFF" font-family="sans-serif" font-size="14" font-style="italic" font-weight="bold" lengthAdjust="spacing" textLength="118.043" x="14.9785" y="100.9951">What you have</text></g><!--cluster whatYouAre--><g id="cluster_whatYouAre"><rect fill="none" height="71" rx="2.5" ry="2.5" style="stroke:#E7E7E7;stroke-width:1.0;" width="121" x="13.5" y="381"/><text fill="#FFFFFF" font-family="sans-serif" font-size="14" font-style="italic" font-weight="bold" lengthAdjust="spacing" textLength="105.8545" x="21.0728" y="395.9951">What you are</text></g><!--entity klikBCA--><g id="elem_klikBCA"><rect fill="#313139" height="36.2969" rx="2.5" ry="2.5" style="stroke:#E7E7E7;stroke-width:0.5;" width="74.0244" x="220.5" y="85"/><text fill="#FFFFFF" font-family="sans-serif" font-size="14" lengthAdjust="spacing" textLength="54.0244" x="230.5" y="107.9951">KlikBCA</text></g><!--entity myBCA--><g id="elem_myBCA"><rect fill="#313139" height="36.2969" rx="2.5" ry="2.5" style="stroke:#E7E7E7;stroke-width:0.5;" width="70.8799" x="222" y="355"/><text fill="#FFFFFF" font-family="sans-serif" font-size="14" lengthAdjust="spacing" textLength="50.8799" x="232" y="377.9951">myBCA</text></g><!--entity oneKlik--><g id="elem_oneKlik"><rect fill="#313139" height="36.2969" rx="2.5" ry="2.5" style="stroke:#E7E7E7;stroke-width:0.5;" width="73.5732" x="220.5" y="193"/><text fill="#FFFFFF" font-family="sans-serif" font-size="14" lengthAdjust="spacing" textLength="53.5732" x="230.5" y="215.9951">OneKlik</text></g><!--entity mBCA--><g id="elem_mBCA"><rect fill="#313139" height="36.2969" rx="2.5" ry="2.5" style="stroke:#E7E7E7;stroke-width:0.5;" width="62.5947" x="226" y="139"/><text fill="#FFFFFF" font-family="sans-serif" font-size="14" lengthAdjust="spacing" textLength="42.5947" x="236" y="161.9951">mBCA</text></g><!--entity ccBCA--><g id="elem_ccBCA"><rect fill="#313139" height="36.2969" rx="2.5" ry="2.5" style="stroke:#E7E7E7;stroke-width:0.5;" width="103.0703" x="206" y="247"/><text fill="#FFFFFF" font-family="sans-serif" font-size="14" lengthAdjust="spacing" textLength="83.0703" x="216" y="269.9951">Kartu kredit</text></g><!--entity atm--><g id="elem_atm"><rect fill="#313139" height="36.2969" rx="2.5" ry="2.5" style="stroke:#E7E7E7;stroke-width:0.5;" width="50.208" x="232.5" y="409"/><text fill="#FFFFFF" font-family="sans-serif" font-size="14" lengthAdjust="spacing" textLength="30.208" x="242.5" y="431.9951">ATM</text></g><!--entity flazz--><g id="elem_flazz"><rect fill="#313139" height="36.2969" rx="2.5" ry="2.5" style="stroke:#E7E7E7;stroke-width:0.5;" width="55.2188" x="230" y="301"/><text fill="#FFFFFF" font-family="sans-serif" font-size="14" lengthAdjust="spacing" textLength="35.2188" x="240" y="323.9951">Flazz</text></g><!--entity klikbcaUsername--><g id="elem_klikbcaUsername"><rect fill="#313139" height="36.2969" rx="35" ry="35" style="stroke:#E7E7E7;stroke-width:0.5;" width="129.7441" x="390.5" y="85"/><text fill="#FFFFFF" font-family="sans-serif" font-size="14" lengthAdjust="spacing" textLength="109.7441" x="400.5" y="107.9951">User ID KlikBCA</text></g><!--entity klikbcaPassword--><g id="elem_klikbcaPassword"><rect fill="#313139" height="36.2969" rx="35" ry="35" style="stroke:#E7E7E7;stroke-width:0.5;" width="101.5186" x="404.5" y="139"/><text fill="#FFFFFF" font-family="sans-serif" font-size="14" lengthAdjust="spacing" textLength="81.5186" x="414.5" y="161.9951">PIN KlikBCA</text></g><!--entity pinKeyBca--><g id="elem_pinKeyBca"><rect fill="#313139" height="36.2969" rx="35" ry="35" style="stroke:#E7E7E7;stroke-width:0.5;" width="102.5303" x="404" y="31"/><text fill="#FFFFFF" font-family="sans-serif" font-size="14" lengthAdjust="spacing" textLength="82.5303" x="414" y="53.9951">PIN KeyBCA</text></g><!--entity BCAid--><g id="elem_BCAid"><rect fill="#313139" height="36.2969" rx="35" ry="35" style="stroke:#E7E7E7;stroke-width:0.5;" width="68.3164" x="421.5" y="301"/><text fill="#FFFFFF" font-family="sans-serif" font-size="14" lengthAdjust="spacing" textLength="48.3164" x="431.5" y="323.9951">BCA ID</text></g><!--entity myBCAPassword--><g id="elem_myBCAPassword"><rect fill="#313139" height="36.2969" rx="35" ry="35" style="stroke:#E7E7E7;stroke-width:0.5;" width="141.5977" x="384.5" y="355"/><text fill="#FFFFFF" font-family="sans-serif" font-size="14" lengthAdjust="spacing" textLength="121.5977" x="394.5" y="377.9951">Password myBCA</text></g><!--entity pinKartuKredit--><g id="elem_pinKartuKredit"><rect fill="#313139" height="36.2969" rx="35" ry="35" style="stroke:#E7E7E7;stroke-width:0.5;" width="130.5645" x="390" y="247"/><text fill="#FFFFFF" font-family="sans-serif" font-size="14" lengthAdjust="spacing" textLength="110.5645" x="400" y="269.9951">PIN Kartu kredit</text></g><!--entity pinATM--><g id="elem_pinATM"><rect fill="#313139" height="36.2969" rx="35" ry="35" style="stroke:#E7E7E7;stroke-width:0.5;" width="77.7021" x="416.5" y="409"/><text fill="#FFFFFF" font-family="sans-serif" font-size="14" lengthAdjust="spacing" textLength="57.7021" x="426.5" y="431.9951">PIN ATM</text></g><!--entity kodemBCA--><g id="elem_kodemBCA"><rect fill="#313139" height="36.2969" rx="35" ry="35" style="stroke:#E7E7E7;stroke-width:0.5;" width="146.6289" x="382" y="193"/><text fill="#FFFFFF" font-family="sans-serif" font-size="14" lengthAdjust="spacing" textLength="126.6289" x="392" y="215.9951">Kode akses mBCA</text></g><!--entity keyBCA--><g id="elem_keyBCA"><rect fill="#313139" height="36.2969" rx="35" ry="35" style="stroke:#E7E7E7;stroke-width:0.5;" width="75.0361" x="36" y="113"/><text fill="#FFFFFF" font-family="sans-serif" font-size="14" lengthAdjust="spacing" textLength="55.0361" x="46" y="135.9951">KeyBCA</text></g><!--entity ponsel--><g id="elem_ponsel"><rect fill="#313139" height="36.2969" rx="35" ry="35" style="stroke:#E7E7E7;stroke-width:0.5;" width="65.6777" x="40.5" y="167"/><text fill="#FFFFFF" font-family="sans-serif" font-size="14" lengthAdjust="spacing" textLength="45.6777" x="50.5" y="189.9951">Ponsel</text></g><!--entity kartuKredit--><g id="elem_kartuKredit"><rect fill="#313139" height="36.2969" rx="35" ry="35" style="stroke:#E7E7E7;stroke-width:0.5;" width="103.0703" x="22" y="221"/><text fill="#FFFFFF" font-family="sans-serif" font-size="14" lengthAdjust="spacing" textLength="83.0703" x="32" y="243.9951">Kartu kredit</text></g><!--entity kartuFlazz--><g id="elem_kartuFlazz"><rect fill="#313139" height="36.2969" rx="35" ry="35" style="stroke:#E7E7E7;stroke-width:0.5;" width="97.5469" x="24.5" y="275"/><text fill="#FFFFFF" font-family="sans-serif" font-size="14" lengthAdjust="spacing" textLength="77.5469" x="34.5" y="297.9951">Kartu Flazz</text></g><!--entity kartuATM--><g id="elem_kartuATM"><rect fill="#313139" height="36.2969" rx="35" ry="35" style="stroke:#E7E7E7;stroke-width:0.5;" width="92.5361" x="27" y="329"/><text fill="#FFFFFF" font-family="sans-serif" font-size="14" lengthAdjust="spacing" textLength="72.5361" x="37" y="351.9951">Kartu ATM</text></g><!--entity biometric--><g id="elem_biometric"><rect fill="#313139" height="36.2969" rx="35" ry="35" style="stroke:#E7E7E7;stroke-width:0.5;" width="87.5527" x="29.5" y="408"/><text fill="#FFFFFF" font-family="sans-serif" font-size="14" lengthAdjust="spacing" textLength="67.5527" x="39.5" y="430.9951">Biometrik</text></g><path d="M294.9068,103 C321.587,103 358.51,103 390.1219,103 " fill="none" style="stroke:#E7E7E7;stroke-width:1.0;"/><path d="M294.9068,113.0304 C325.6832,121.5096 370.0888,133.7439 404.2498,143.1556 " fill="none" style="stroke:#E7E7E7;stroke-width:1.0;"/><path d="M111.3304,125.3338 C143.1143,120.4439 188.7601,113.4215 220.3455,108.5622 " fill="none" style="stroke:#E7E7E7;stroke-width:1.0;"/><path d="M95.4945,112.8818 C118.763,94.0746 158.2747,65.7896 198,54 C266.9588,33.5345 350.9938,36.9008 403.6386,42.1748 " fill="none" style="stroke:#E7E7E7;stroke-width:1.0;"/><path d="M293.0897,363.4702 C329.2461,353.5087 385.5833,337.9873 421.2365,328.1644 " fill="none" style="stroke:#E7E7E7;stroke-width:1.0;"/><path d="M293.0897,373 C318.2563,373 353.2002,373 384.1407,373 " fill="none" style="stroke:#E7E7E7;stroke-width:1.0;"/><path d="M106.5394,192.4065 C118.564,196.5169 131.5837,202.7379 141,212 C187.1399,257.3845 152.933,299.55 198,346 C204.6208,352.8239 213.2942,358.093 221.9274,362.0873 " fill="none" style="stroke:#E7E7E7;stroke-width:1.0;"/><path d="M117.6315,413.4397 C149.4819,404.1646 192.2694,391.7045 221.8941,383.0775 " fill="none" style="stroke:#E7E7E7;stroke-width:1.0;"/><path d="M309.2298,265 C333.8432,265 363.6878,265 389.9081,265 " fill="none" style="stroke:#E7E7E7;stroke-width:1.0;"/><path d="M125.1971,246.2424 C150.3352,249.8336 180.6154,254.1593 205.7594,257.7513 " fill="none" style="stroke:#E7E7E7;stroke-width:1.0;"/><path d="M106.7532,197.7592 C117.6708,202.1672 129.9052,207.2049 141,212 C148.5945,215.2823 186.943,232.9142 217.3982,246.953 " fill="none" style="stroke:#E7E7E7;stroke-width:1.0;"/><path d="M122.7948,299.8993 C157.1257,304.8037 201.9439,311.2063 229.9763,315.2109 " fill="none" style="stroke:#E7E7E7;stroke-width:1.0;"/><path d="M115.7986,365.1532 C151.7718,380.9656 202.6927,403.3484 232.3891,416.4018 " fill="none" style="stroke:#E7E7E7;stroke-width:1.0;"/><path d="M282.5334,427 C315.96,427 376.8348,427 416.4623,427 " fill="none" style="stroke:#E7E7E7;stroke-width:1.0;"/><path d="M257.5,391.2098 C257.5,397.093 257.5,402.9762 257.5,408.8594 " fill="none" style="stroke:#E7E7E7;stroke-width:1.0;"/><path d="M106.619,180.0586 C140.2948,174.8777 192.8241,166.7963 225.9138,161.7056 " fill="none" style="stroke:#E7E7E7;stroke-width:1.0;"/><path d="M289.125,165.4375 C315.7185,172.7643 355.1413,183.6257 388.826,192.9061 " fill="none" style="stroke:#E7E7E7;stroke-width:1.0;"/><path d="M106.619,189.5884 C138.458,194.1369 187.1497,201.0928 220.3319,205.8331 " fill="none" style="stroke:#E7E7E7;stroke-width:1.0;"/><!--SRC=[TLHBRzim3BxhLt2vx1Ji3nG5qXR50k_HmuPXHyPM4y6s54ZA0dVOVnz5FUpOhazyV2JDZwHSg_GPBVQTgLlPm07hzcZDHJUFfZCMl4Nj222r5n_E5eyzGeU3kNXmlVIeKNJorOCtODNnvA5HLjPU6Ir4450VEmbVS22aXhy2w1ljRQVQXySTe8DD5UND3D8F6S3It6sq384C-1xbHOQIO2M-hajzjFu2hPMDydCK-funknzVvwxN3j_UsFaSf8tuDstyUaB_srmgRQwCkLFtlyW4H22qPBpxfEutYHRd3V4RIJdK-DD9gx6N71SKs3_13KcpW1Tqxcfimm4l-s_huBFIbHmUQXnXSbYWoA1Yea3F_kdMovEuBPULVbYj6BYjcDgnx8BlIG0HNO25zDAlQMGPQaKAOEkaWpZVDVu_un-vuFz4nbN-PLcvDMhEHZlPnRzZSVPpirRVRvEHpsLz8Z0jqGAN2OaefcIjqPrTzad7kzRcGHawOAlgEEQajPptOxvCaIzqkvtlvOehRu5852OFvyaMifKL38LuOKIVyRnuetgpQI9Hd-rYR65RR9IIRrh4oqxbng68wO386y5ZvgXJ5ZviCHaIEQEDdFGWY38NSWGzF1AfFRBc7jWL-hmfiurwdrbA6ns0zA85qYQ_bDuu8Vu3]--></g></svg>